<?xml version="1.0" encoding="utf-8"?>
<svg version="1.1" xmlns:xlink="http://www.w3.org/1999/xlink" width="40px" height="50px" xmlns="http://www.w3.org/2000/svg">
  <defs>
    <filter x="839px" y="1996px" width="40px" height="50px" filterUnits="userSpaceOnUse" id="filter5">
      <feOffset dx="1" dy="1" in="SourceAlpha" result="shadowOffsetInner" />
      <feGaussianBlur stdDeviation="2.5" in="shadowOffsetInner" result="shadowGaussian" />
      <feComposite in2="shadowGaussian" operator="atop" in="SourceAlpha" result="shadowComposite" />
      <feColorMatrix type="matrix" values="0 0 0 0 0  0 0 0 0 0  0 0 0 0 0  0 0 0 0.698039215686274 0  " in="shadowComposite" />
    </filter>
    <g id="widget6">
      <path d="M 858 2039.03692846835  C 852.2 2029.40734059591  843.5 2023.62958787244  843.5 2014  C 843.5 2008.98571428571  846.4 2000.5  858 2000.5  C 869.6 2000.5  872.5 2008.98571428571  872.5 2014  C 872.5 2023.62958787244  863.8 2029.40734059591  858 2039.03692846835  Z " fill-rule="nonzero" fill="#009dd9" stroke="none" />
      <path d="M 858 2040  C 852 2030  843 2024  843 2014  C 843 2008.8  846 2000  858 2000  C 870 2000  873 2008.8  873 2014  C 873 2024  864 2030  858 2040  Z M 858 2038.07385693671  C 863.6 2028.81468119182  872 2023.25917574489  872 2014  C 872 2009.17142857143  869.2 2001  858 2001  C 846.8 2001  844 2009.17142857143  844 2014  C 844 2023.25917574489  852.4 2028.81468119182  858 2038.07385693671  Z " fill-rule="nonzero" fill="#ffffff" stroke="none" />
    </g>
  </defs>
  <g transform="matrix(1 0 0 1 -839 -1996 )">
    <use xlink:href="#widget6" filter="url(#filter5)" />
    <use xlink:href="#widget6" />
  </g>
</svg>