<?xml version="1.0" encoding="utf-8"?>
<svg version="1.1" xmlns:xlink="http://www.w3.org/1999/xlink" width="40px" height="50px" xmlns="http://www.w3.org/2000/svg">
  <defs>
    <filter x="839px" y="2068px" width="40px" height="50px" filterUnits="userSpaceOnUse" id="filter1">
      <feOffset dx="1" dy="1" in="SourceAlpha" result="shadowOffsetInner" />
      <feGaussianBlur stdDeviation="2.5" in="shadowOffsetInner" result="shadowGaussian" />
      <feComposite in2="shadowGaussian" operator="atop" in="SourceAlpha" result="shadowComposite" />
      <feColorMatrix type="matrix" values="0 0 0 0 0  0 0 0 0 0  0 0 0 0 0  0 0 0 0.698039215686274 0  " in="shadowComposite" />
    </filter>
    <g id="widget2">
      <path d="M 858 2111.03692846835  C 852.2 2101.40734059591  843.5 2095.62958787244  843.5 2086  C 843.5 2080.98571428571  846.4 2072.5  858 2072.5  C 869.6 2072.5  872.5 2080.98571428571  872.5 2086  C 872.5 2095.62958787244  863.8 2101.40734059591  858 2111.03692846835  Z " fill-rule="nonzero" fill="#009dd9" stroke="none" />
      <path d="M 858 2112  C 852 2102  843 2096  843 2086  C 843 2080.8  846 2072  858 2072  C 870 2072  873 2080.8  873 2086  C 873 2096  864 2102  858 2112  Z M 858 2110.07385693671  C 863.6 2100.81468119182  872 2095.25917574489  872 2086  C 872 2081.17142857143  869.2 2073  858 2073  C 846.8 2073  844 2081.17142857143  844 2086  C 844 2095.25917574489  852.4 2100.81468119182  858 2110.07385693671  Z " fill-rule="nonzero" fill="#ffffff" stroke="none" />
    </g>
  </defs>
  <g transform="matrix(1 0 0 1 -839 -2068 )">
    <use xlink:href="#widget2" filter="url(#filter1)" />
    <use xlink:href="#widget2" />
  </g>
</svg>