<?xml version="1.0" encoding="utf-8"?>
<svg version="1.1" xmlns:xlink="http://www.w3.org/1999/xlink" width="12px" height="12px" viewBox="251 327.5  12 12" xmlns="http://www.w3.org/2000/svg">
  <path d="M 257 327.5  C 260.36 327.5  263 330.14  263 333.5  C 263 336.86  260.36 339.5  257 339.5  C 253.64 339.5  251 336.86  251 333.5  C 251 330.14  253.64 327.5  257 327.5  Z " fill-rule="nonzero" fill="#70b603" stroke="none" />
  <path d="M 257 328  C 260.08 328  262.5 330.42  262.5 333.5  C 262.5 336.58  260.08 339  257 339  C 253.92 339  251.5 336.58  251.5 333.5  C 251.5 330.42  253.92 328  257 328  Z " stroke-width="1" stroke="#797979" fill="none" />
  <path d="M 257 336.5  C 255.32 336.5  254 335.18  254 333.5  C 254 331.82  255.32 330.5  257 330.5  C 258.68 330.5  260 331.82  260 333.5  C 260 335.18  258.68 336.5  257 336.5  " fill-rule="nonzero" fill="#797979" stroke="none" />
</svg>