<?xml version="1.0" encoding="utf-8"?>
<svg version="1.1" xmlns:xlink="http://www.w3.org/1999/xlink" width="12px" height="12px" viewBox="351 327.5  12 12" xmlns="http://www.w3.org/2000/svg">
  <path d="M 357 327.5  C 360.36 327.5  363 330.14  363 333.5  C 363 336.86  360.36 339.5  357 339.5  C 353.64 339.5  351 336.86  351 333.5  C 351 330.14  353.64 327.5  357 327.5  Z " fill-rule="nonzero" fill="#70b603" stroke="none" />
  <path d="M 357 328  C 360.08 328  362.5 330.42  362.5 333.5  C 362.5 336.58  360.08 339  357 339  C 353.92 339  351.5 336.58  351.5 333.5  C 351.5 330.42  353.92 328  357 328  Z " stroke-width="1" stroke="#797979" fill="none" />
  <path d="M 357 336.5  C 355.32 336.5  354 335.18  354 333.5  C 354 331.82  355.32 330.5  357 330.5  C 358.68 330.5  360 331.82  360 333.5  C 360 335.18  358.68 336.5  357 336.5  " fill-rule="nonzero" fill="#797979" stroke="none" />
</svg>