<?xml version="1.0" encoding="utf-8"?>
<svg version="1.1" xmlns:xlink="http://www.w3.org/1999/xlink" width="12px" height="12px" viewBox="351 360.5  12 12" xmlns="http://www.w3.org/2000/svg">
  <path d="M 357 360.5  C 360.36 360.5  363 363.14  363 366.5  C 363 369.86  360.36 372.5  357 372.5  C 353.64 372.5  351 369.86  351 366.5  C 351 363.14  353.64 360.5  357 360.5  Z " fill-rule="nonzero" fill="#70b603" stroke="none" />
  <path d="M 357 361  C 360.08 361  362.5 363.42  362.5 366.5  C 362.5 369.58  360.08 372  357 372  C 353.92 372  351.5 369.58  351.5 366.5  C 351.5 363.42  353.92 361  357 361  Z " stroke-width="1" stroke="#797979" fill="none" />
  <path d="M 357 369.5  C 355.32 369.5  354 368.18  354 366.5  C 354 364.82  355.32 363.5  357 363.5  C 358.68 363.5  360 364.82  360 366.5  C 360 368.18  358.68 369.5  357 369.5  " fill-rule="nonzero" fill="#797979" stroke="none" />
</svg>