<?xml version="1.0" encoding="utf-8"?>
<svg version="1.1" xmlns:xlink="http://www.w3.org/1999/xlink" width="12px" height="12px" viewBox="251 398.5  12 12" xmlns="http://www.w3.org/2000/svg">
  <path d="M 257 398.5  C 260.36 398.5  263 401.14  263 404.5  C 263 407.86  260.36 410.5  257 410.5  C 253.64 410.5  251 407.86  251 404.5  C 251 401.14  253.64 398.5  257 398.5  Z " fill-rule="nonzero" fill="#70b603" stroke="none" />
  <path d="M 257 399  C 260.08 399  262.5 401.42  262.5 404.5  C 262.5 407.58  260.08 410  257 410  C 253.92 410  251.5 407.58  251.5 404.5  C 251.5 401.42  253.92 399  257 399  Z " stroke-width="1" stroke="#797979" fill="none" />
  <path d="M 257 407.5  C 255.32 407.5  254 406.18  254 404.5  C 254 402.82  255.32 401.5  257 401.5  C 258.68 401.5  260 402.82  260 404.5  C 260 406.18  258.68 407.5  257 407.5  " fill-rule="nonzero" fill="#797979" stroke="none" />
</svg>