<?xml version="1.0" encoding="utf-8"?>
<svg version="1.1" xmlns:xlink="http://www.w3.org/1999/xlink" width="12px" height="12px" viewBox="351 398.5  12 12" xmlns="http://www.w3.org/2000/svg">
  <path d="M 357 398.5  C 360.36 398.5  363 401.14  363 404.5  C 363 407.86  360.36 410.5  357 410.5  C 353.64 410.5  351 407.86  351 404.5  C 351 401.14  353.64 398.5  357 398.5  Z " fill-rule="nonzero" fill="#f0f0f0" stroke="none" />
  <path d="M 357 399  C 360.08 399  362.5 401.42  362.5 404.5  C 362.5 407.58  360.08 410  357 410  C 353.92 410  351.5 407.58  351.5 404.5  C 351.5 401.42  353.92 399  357 399  Z " stroke-width="1" stroke="#797979" fill="none" />
  <path d="M 357 407.5  C 355.32 407.5  354 406.18  354 404.5  C 354 402.82  355.32 401.5  357 401.5  C 358.68 401.5  360 402.82  360 404.5  C 360 406.18  358.68 407.5  357 407.5  " fill-rule="nonzero" fill="#797979" stroke="none" />
</svg>