<?xml version="1.0" encoding="utf-8"?>
<svg version="1.1" xmlns:xlink="http://www.w3.org/1999/xlink" width="12px" height="12px" viewBox="351 433.5  12 12" xmlns="http://www.w3.org/2000/svg">
  <path d="M 357 433.5  C 360.36 433.5  363 436.14  363 439.5  C 363 442.86  360.36 445.5  357 445.5  C 353.64 445.5  351 442.86  351 439.5  C 351 436.14  353.64 433.5  357 433.5  Z " fill-rule="nonzero" fill="#70b603" stroke="none" />
  <path d="M 357 434  C 360.08 434  362.5 436.42  362.5 439.5  C 362.5 442.58  360.08 445  357 445  C 353.92 445  351.5 442.58  351.5 439.5  C 351.5 436.42  353.92 434  357 434  Z " stroke-width="1" stroke="#797979" fill="none" />
  <path d="M 357 442.5  C 355.32 442.5  354 441.18  354 439.5  C 354 437.82  355.32 436.5  357 436.5  C 358.68 436.5  360 437.82  360 439.5  C 360 441.18  358.68 442.5  357 442.5  " fill-rule="nonzero" fill="#797979" stroke="none" />
</svg>