<?xml version="1.0" encoding="utf-8"?>
<svg version="1.1" xmlns:xlink="http://www.w3.org/1999/xlink" width="12px" height="12px" viewBox="351 506.5  12 12" xmlns="http://www.w3.org/2000/svg">
  <path d="M 357 506.5  C 360.36 506.5  363 509.14  363 512.5  C 363 515.86  360.36 518.5  357 518.5  C 353.64 518.5  351 515.86  351 512.5  C 351 509.14  353.64 506.5  357 506.5  Z " fill-rule="nonzero" fill="#70b603" stroke="none" />
  <path d="M 357 507  C 360.08 507  362.5 509.42  362.5 512.5  C 362.5 515.58  360.08 518  357 518  C 353.92 518  351.5 515.58  351.5 512.5  C 351.5 509.42  353.92 507  357 507  Z " stroke-width="1" stroke="#797979" fill="none" />
  <path d="M 357 515.5  C 355.32 515.5  354 514.18  354 512.5  C 354 510.82  355.32 509.5  357 509.5  C 358.68 509.5  360 510.82  360 512.5  C 360 514.18  358.68 515.5  357 515.5  " fill-rule="nonzero" fill="#797979" stroke="none" />
</svg>