<?xml version="1.0" encoding="utf-8"?>
<svg version="1.1" xmlns:xlink="http://www.w3.org/1999/xlink" width="12px" height="12px" viewBox="261 931.5  12 12" xmlns="http://www.w3.org/2000/svg">
  <path d="M 267 931.5  C 270.36 931.5  273 934.14  273 937.5  C 273 940.86  270.36 943.5  267 943.5  C 263.64 943.5  261 940.86  261 937.5  C 261 934.14  263.64 931.5  267 931.5  Z " fill-rule="nonzero" fill="#70b603" stroke="none" />
  <path d="M 267 932  C 270.08 932  272.5 934.42  272.5 937.5  C 272.5 940.58  270.08 943  267 943  C 263.92 943  261.5 940.58  261.5 937.5  C 261.5 934.42  263.92 932  267 932  Z " stroke-width="1" stroke="#797979" fill="none" />
  <path d="M 267 940.5  C 265.32 940.5  264 939.18  264 937.5  C 264 935.82  265.32 934.5  267 934.5  C 268.68 934.5  270 935.82  270 937.5  C 270 939.18  268.68 940.5  267 940.5  " fill-rule="nonzero" fill="#797979" stroke="none" />
</svg>