<?xml version="1.0" encoding="utf-8"?>
<svg version="1.1" xmlns:xlink="http://www.w3.org/1999/xlink" width="12px" height="12px" viewBox="498 930.5  12 12" xmlns="http://www.w3.org/2000/svg">
  <path d="M 504 930.5  C 507.36 930.5  510 933.14  510 936.5  C 510 939.86  507.36 942.5  504 942.5  C 500.64 942.5  498 939.86  498 936.5  C 498 933.14  500.64 930.5  504 930.5  Z " fill-rule="nonzero" fill="#70b603" stroke="none" />
  <path d="M 504 931  C 507.08 931  509.5 933.42  509.5 936.5  C 509.5 939.58  507.08 942  504 942  C 500.92 942  498.5 939.58  498.5 936.5  C 498.5 933.42  500.92 931  504 931  Z " stroke-width="1" stroke="#797979" fill="none" />
  <path d="M 504 939.5  C 502.32 939.5  501 938.18  501 936.5  C 501 934.82  502.32 933.5  504 933.5  C 505.68 933.5  507 934.82  507 936.5  C 507 938.18  505.68 939.5  504 939.5  " fill-rule="nonzero" fill="#797979" stroke="none" />
</svg>