<?xml version="1.0" encoding="utf-8"?>
<svg version="1.1" xmlns:xlink="http://www.w3.org/1999/xlink" width="12px" height="12px" viewBox="571 929.5  12 12" xmlns="http://www.w3.org/2000/svg">
  <path d="M 577 929.5  C 580.36 929.5  583 932.14  583 935.5  C 583 938.86  580.36 941.5  577 941.5  C 573.64 941.5  571 938.86  571 935.5  C 571 932.14  573.64 929.5  577 929.5  Z " fill-rule="nonzero" fill="#f0f0f0" stroke="none" />
  <path d="M 577 930  C 580.08 930  582.5 932.42  582.5 935.5  C 582.5 938.58  580.08 941  577 941  C 573.92 941  571.5 938.58  571.5 935.5  C 571.5 932.42  573.92 930  577 930  Z " stroke-width="1" stroke="#797979" fill="none" />
  <path d="M 577 938.5  C 575.32 938.5  574 937.18  574 935.5  C 574 933.82  575.32 932.5  577 932.5  C 578.68 932.5  580 933.82  580 935.5  C 580 937.18  578.68 938.5  577 938.5  " fill-rule="nonzero" fill="#797979" stroke="none" />
</svg>