<?xml version="1.0" encoding="utf-8"?>
<svg version="1.1" xmlns:xlink="http://www.w3.org/1999/xlink" width="12px" height="12px" viewBox="251 1006.5  12 12" xmlns="http://www.w3.org/2000/svg">
  <path d="M 257 1006.5  C 260.36 1006.5  263 1009.14  263 1012.5  C 263 1015.86  260.36 1018.5  257 1018.5  C 253.64 1018.5  251 1015.86  251 1012.5  C 251 1009.14  253.64 1006.5  257 1006.5  Z " fill-rule="nonzero" fill="#70b603" stroke="none" />
  <path d="M 257 1007  C 260.08 1007  262.5 1009.42  262.5 1012.5  C 262.5 1015.58  260.08 1018  257 1018  C 253.92 1018  251.5 1015.58  251.5 1012.5  C 251.5 1009.42  253.92 1007  257 1007  Z " stroke-width="1" stroke="#797979" fill="none" />
  <path d="M 257 1015.5  C 255.32 1015.5  254 1014.18  254 1012.5  C 254 1010.82  255.32 1009.5  257 1009.5  C 258.68 1009.5  260 1010.82  260 1012.5  C 260 1014.18  258.68 1015.5  257 1015.5  " fill-rule="nonzero" fill="#797979" stroke="none" />
</svg>