<?xml version="1.0" encoding="utf-8"?>
<svg version="1.1" xmlns:xlink="http://www.w3.org/1999/xlink" width="12px" height="12px" viewBox="351 1006.5  12 12" xmlns="http://www.w3.org/2000/svg">
  <path d="M 357 1006.5  C 360.36 1006.5  363 1009.14  363 1012.5  C 363 1015.86  360.36 1018.5  357 1018.5  C 353.64 1018.5  351 1015.86  351 1012.5  C 351 1009.14  353.64 1006.5  357 1006.5  Z " fill-rule="nonzero" fill="#f0f0f0" stroke="none" />
  <path d="M 357 1007  C 360.08 1007  362.5 1009.42  362.5 1012.5  C 362.5 1015.58  360.08 1018  357 1018  C 353.92 1018  351.5 1015.58  351.5 1012.5  C 351.5 1009.42  353.92 1007  357 1007  Z " stroke-width="1" stroke="#797979" fill="none" />
  <path d="M 357 1015.5  C 355.32 1015.5  354 1014.18  354 1012.5  C 354 1010.82  355.32 1009.5  357 1009.5  C 358.68 1009.5  360 1010.82  360 1012.5  C 360 1014.18  358.68 1015.5  357 1015.5  " fill-rule="nonzero" fill="#797979" stroke="none" />
</svg>