<?xml version="1.0" encoding="utf-8"?>
<svg version="1.1" xmlns:xlink="http://www.w3.org/1999/xlink" width="12px" height="12px" viewBox="261 1512  12 12" xmlns="http://www.w3.org/2000/svg">
  <path d="M 267 1512  C 270.36 1512  273 1514.64  273 1518  C 273 1521.36  270.36 1524  267 1524  C 263.64 1524  261 1521.36  261 1518  C 261 1514.64  263.64 1512  267 1512  Z " fill-rule="nonzero" fill="#ffffff" stroke="none" />
  <path d="M 267 1512.5  C 270.08 1512.5  272.5 1514.92  272.5 1518  C 272.5 1521.08  270.08 1523.5  267 1523.5  C 263.92 1523.5  261.5 1521.08  261.5 1518  C 261.5 1514.92  263.92 1512.5  267 1512.5  Z " stroke-width="1" stroke="#797979" fill="none" />
  <path d="M 267 1521  C 265.32 1521  264 1519.68  264 1518  C 264 1516.32  265.32 1515  267 1515  C 268.68 1515  270 1516.32  270 1518  C 270 1519.68  268.68 1521  267 1521  " fill-rule="nonzero" fill="#797979" stroke="none" />
</svg>