<?xml version="1.0" encoding="utf-8"?>
<svg version="1.1" xmlns:xlink="http://www.w3.org/1999/xlink" width="12px" height="12px" viewBox="261 1542  12 12" xmlns="http://www.w3.org/2000/svg">
  <path d="M 267 1542  C 270.36 1542  273 1544.64  273 1548  C 273 1551.36  270.36 1554  267 1554  C 263.64 1554  261 1551.36  261 1548  C 261 1544.64  263.64 1542  267 1542  Z " fill-rule="nonzero" fill="#f0f0f0" stroke="none" />
  <path d="M 267 1542.5  C 270.08 1542.5  272.5 1544.92  272.5 1548  C 272.5 1551.08  270.08 1553.5  267 1553.5  C 263.92 1553.5  261.5 1551.08  261.5 1548  C 261.5 1544.92  263.92 1542.5  267 1542.5  Z " stroke-width="1" stroke="#797979" fill="none" />
  <path d="M 267 1551  C 265.32 1551  264 1549.68  264 1548  C 264 1546.32  265.32 1545  267 1545  C 268.68 1545  270 1546.32  270 1548  C 270 1549.68  268.68 1551  267 1551  " fill-rule="nonzero" fill="#797979" stroke="none" />
</svg>