<?xml version="1.0" encoding="utf-8"?>
<svg version="1.1" xmlns:xlink="http://www.w3.org/1999/xlink" width="12px" height="12px" viewBox="261 1572  12 12" xmlns="http://www.w3.org/2000/svg">
  <path d="M 267 1572  C 270.36 1572  273 1574.64  273 1578  C 273 1581.36  270.36 1584  267 1584  C 263.64 1584  261 1581.36  261 1578  C 261 1574.64  263.64 1572  267 1572  Z " fill-rule="nonzero" fill="#ffffff" stroke="none" />
  <path d="M 267 1572.5  C 270.08 1572.5  272.5 1574.92  272.5 1578  C 272.5 1581.08  270.08 1583.5  267 1583.5  C 263.92 1583.5  261.5 1581.08  261.5 1578  C 261.5 1574.92  263.92 1572.5  267 1572.5  Z " stroke-width="1" stroke="#797979" fill="none" />
  <path d="M 267 1581  C 265.32 1581  264 1579.68  264 1578  C 264 1576.32  265.32 1575  267 1575  C 268.68 1575  270 1576.32  270 1578  C 270 1579.68  268.68 1581  267 1581  " fill-rule="nonzero" fill="#797979" stroke="none" />
</svg>