<?xml version="1.0" encoding="utf-8"?>
<svg version="1.1" xmlns:xlink="http://www.w3.org/1999/xlink" width="12px" height="12px" viewBox="251 377.5  12 12" xmlns="http://www.w3.org/2000/svg">
  <path d="M 257 377.5  C 260.36 377.5  263 380.14  263 383.5  C 263 386.86  260.36 389.5  257 389.5  C 253.64 389.5  251 386.86  251 383.5  C 251 380.14  253.64 377.5  257 377.5  Z " fill-rule="nonzero" fill="#f0f0f0" stroke="none" />
  <path d="M 257 378  C 260.08 378  262.5 380.42  262.5 383.5  C 262.5 386.58  260.08 389  257 389  C 253.92 389  251.5 386.58  251.5 383.5  C 251.5 380.42  253.92 378  257 378  Z " stroke-width="1" stroke="#797979" fill="none" />
  <path d="M 257 386.5  C 255.32 386.5  254 385.18  254 383.5  C 254 381.82  255.32 380.5  257 380.5  C 258.68 380.5  260 381.82  260 383.5  C 260 385.18  258.68 386.5  257 386.5  " fill-rule="nonzero" fill="#797979" stroke="none" />
</svg>