<?xml version="1.0" encoding="utf-8"?>
<svg version="1.1" xmlns:xlink="http://www.w3.org/1999/xlink" width="12px" height="12px" viewBox="351 483.5  12 12" xmlns="http://www.w3.org/2000/svg">
  <path d="M 357 483.5  C 360.36 483.5  363 486.14  363 489.5  C 363 492.86  360.36 495.5  357 495.5  C 353.64 495.5  351 492.86  351 489.5  C 351 486.14  353.64 483.5  357 483.5  Z " fill-rule="nonzero" fill="#70b603" stroke="none" />
  <path d="M 357 484  C 360.08 484  362.5 486.42  362.5 489.5  C 362.5 492.58  360.08 495  357 495  C 353.92 495  351.5 492.58  351.5 489.5  C 351.5 486.42  353.92 484  357 484  Z " stroke-width="1" stroke="#797979" fill="none" />
  <path d="M 357 492.5  C 355.32 492.5  354 491.18  354 489.5  C 354 487.82  355.32 486.5  357 486.5  C 358.68 486.5  360 487.82  360 489.5  C 360 491.18  358.68 492.5  357 492.5  " fill-rule="nonzero" fill="#797979" stroke="none" />
</svg>