<?xml version="1.0" encoding="utf-8"?>
<svg version="1.1" xmlns:xlink="http://www.w3.org/1999/xlink" width="12px" height="12px" viewBox="351 556.5  12 12" xmlns="http://www.w3.org/2000/svg">
  <path d="M 357 556.5  C 360.36 556.5  363 559.14  363 562.5  C 363 565.86  360.36 568.5  357 568.5  C 353.64 568.5  351 565.86  351 562.5  C 351 559.14  353.64 556.5  357 556.5  Z " fill-rule="nonzero" fill="#f0f0f0" stroke="none" />
  <path d="M 357 557  C 360.08 557  362.5 559.42  362.5 562.5  C 362.5 565.58  360.08 568  357 568  C 353.92 568  351.5 565.58  351.5 562.5  C 351.5 559.42  353.92 557  357 557  Z " stroke-width="1" stroke="#797979" fill="none" />
  <path d="M 357 565.5  C 355.32 565.5  354 564.18  354 562.5  C 354 560.82  355.32 559.5  357 559.5  C 358.68 559.5  360 560.82  360 562.5  C 360 564.18  358.68 565.5  357 565.5  " fill-rule="nonzero" fill="#797979" stroke="none" />
</svg>