<?xml version="1.0" encoding="utf-8"?>
<svg version="1.1" xmlns:xlink="http://www.w3.org/1999/xlink" width="12px" height="12px" viewBox="571 1143.5  12 12" xmlns="http://www.w3.org/2000/svg">
  <path d="M 577 1143.5  C 580.36 1143.5  583 1146.14  583 1149.5  C 583 1152.86  580.36 1155.5  577 1155.5  C 573.64 1155.5  571 1152.86  571 1149.5  C 571 1146.14  573.64 1143.5  577 1143.5  Z " fill-rule="nonzero" fill="#70b603" stroke="none" />
  <path d="M 577 1144  C 580.08 1144  582.5 1146.42  582.5 1149.5  C 582.5 1152.58  580.08 1155  577 1155  C 573.92 1155  571.5 1152.58  571.5 1149.5  C 571.5 1146.42  573.92 1144  577 1144  Z " stroke-width="1" stroke="#797979" fill="none" />
  <path d="M 577 1152.5  C 575.32 1152.5  574 1151.18  574 1149.5  C 574 1147.82  575.32 1146.5  577 1146.5  C 578.68 1146.5  580 1147.82  580 1149.5  C 580 1151.18  578.68 1152.5  577 1152.5  " fill-rule="nonzero" fill="#797979" stroke="none" />
</svg>