<?xml version="1.0" encoding="utf-8"?>
<svg version="1.1" xmlns:xlink="http://www.w3.org/1999/xlink" width="12px" height="12px" viewBox="251 1220.5  12 12" xmlns="http://www.w3.org/2000/svg">
  <path d="M 257 1220.5  C 260.36 1220.5  263 1223.14  263 1226.5  C 263 1229.86  260.36 1232.5  257 1232.5  C 253.64 1232.5  251 1229.86  251 1226.5  C 251 1223.14  253.64 1220.5  257 1220.5  Z " fill-rule="nonzero" fill="#70b603" stroke="none" />
  <path d="M 257 1221  C 260.08 1221  262.5 1223.42  262.5 1226.5  C 262.5 1229.58  260.08 1232  257 1232  C 253.92 1232  251.5 1229.58  251.5 1226.5  C 251.5 1223.42  253.92 1221  257 1221  Z " stroke-width="1" stroke="#797979" fill="none" />
  <path d="M 257 1229.5  C 255.32 1229.5  254 1228.18  254 1226.5  C 254 1224.82  255.32 1223.5  257 1223.5  C 258.68 1223.5  260 1224.82  260 1226.5  C 260 1228.18  258.68 1229.5  257 1229.5  " fill-rule="nonzero" fill="#797979" stroke="none" />
</svg>