<?xml version="1.0" encoding="utf-8"?>
<svg version="1.1" xmlns:xlink="http://www.w3.org/1999/xlink" width="12px" height="12px" viewBox="351 448.5  12 12" xmlns="http://www.w3.org/2000/svg">
  <path d="M 357 448.5  C 360.36 448.5  363 451.14  363 454.5  C 363 457.86  360.36 460.5  357 460.5  C 353.64 460.5  351 457.86  351 454.5  C 351 451.14  353.64 448.5  357 448.5  Z " fill-rule="nonzero" fill="#70b603" stroke="none" />
  <path d="M 357 449  C 360.08 449  362.5 451.42  362.5 454.5  C 362.5 457.58  360.08 460  357 460  C 353.92 460  351.5 457.58  351.5 454.5  C 351.5 451.42  353.92 449  357 449  Z " stroke-width="1" stroke="#797979" fill="none" />
  <path d="M 357 457.5  C 355.32 457.5  354 456.18  354 454.5  C 354 452.82  355.32 451.5  357 451.5  C 358.68 451.5  360 452.82  360 454.5  C 360 456.18  358.68 457.5  357 457.5  " fill-rule="nonzero" fill="#797979" stroke="none" />
</svg>