<?xml version="1.0" encoding="utf-8"?>
<svg version="1.1" xmlns:xlink="http://www.w3.org/1999/xlink" width="12px" height="12px" viewBox="301 1220.5  12 12" xmlns="http://www.w3.org/2000/svg">
  <path d="M 307 1220.5  C 310.36 1220.5  313 1223.14  313 1226.5  C 313 1229.86  310.36 1232.5  307 1232.5  C 303.64 1232.5  301 1229.86  301 1226.5  C 301 1223.14  303.64 1220.5  307 1220.5  Z " fill-rule="nonzero" fill="#70b603" stroke="none" />
  <path d="M 307 1221  C 310.08 1221  312.5 1223.42  312.5 1226.5  C 312.5 1229.58  310.08 1232  307 1232  C 303.92 1232  301.5 1229.58  301.5 1226.5  C 301.5 1223.42  303.92 1221  307 1221  Z " stroke-width="1" stroke="#797979" fill="none" />
  <path d="M 307 1229.5  C 305.32 1229.5  304 1228.18  304 1226.5  C 304 1224.82  305.32 1223.5  307 1223.5  C 308.68 1223.5  310 1224.82  310 1226.5  C 310 1228.18  308.68 1229.5  307 1229.5  " fill-rule="nonzero" fill="#797979" stroke="none" />
</svg>