<?xml version="1.0" encoding="utf-8"?>
<svg version="1.1" xmlns:xlink="http://www.w3.org/1999/xlink" width="12px" height="12px" viewBox="401 1220.5  12 12" xmlns="http://www.w3.org/2000/svg">
  <path d="M 407 1220.5  C 410.36 1220.5  413 1223.14  413 1226.5  C 413 1229.86  410.36 1232.5  407 1232.5  C 403.64 1232.5  401 1229.86  401 1226.5  C 401 1223.14  403.64 1220.5  407 1220.5  Z " fill-rule="nonzero" fill="#70b603" stroke="none" />
  <path d="M 407 1221  C 410.08 1221  412.5 1223.42  412.5 1226.5  C 412.5 1229.58  410.08 1232  407 1232  C 403.92 1232  401.5 1229.58  401.5 1226.5  C 401.5 1223.42  403.92 1221  407 1221  Z " stroke-width="1" stroke="#797979" fill="none" />
  <path d="M 407 1229.5  C 405.32 1229.5  404 1228.18  404 1226.5  C 404 1224.82  405.32 1223.5  407 1223.5  C 408.68 1223.5  410 1224.82  410 1226.5  C 410 1228.18  408.68 1229.5  407 1229.5  " fill-rule="nonzero" fill="#797979" stroke="none" />
</svg>