<?xml version="1.0" encoding="utf-8"?>
<svg version="1.1" xmlns:xlink="http://www.w3.org/1999/xlink" width="40px" height="50px" xmlns="http://www.w3.org/2000/svg">
  <defs>
    <filter x="57px" y="1152px" width="40px" height="50px" filterUnits="userSpaceOnUse" id="filter3">
      <feOffset dx="1" dy="1" in="SourceAlpha" result="shadowOffsetInner" />
      <feGaussianBlur stdDeviation="2.5" in="shadowOffsetInner" result="shadowGaussian" />
      <feComposite in2="shadowGaussian" operator="atop" in="SourceAlpha" result="shadowComposite" />
      <feColorMatrix type="matrix" values="0 0 0 0 0  0 0 0 0 0  0 0 0 0 0  0 0 0 0.698039215686274 0  " in="shadowComposite" />
    </filter>
    <g id="widget4">
      <path d="M 76 1195.03692846835  C 70.2 1185.40734059591  61.5 1179.62958787244  61.5 1170  C 61.5 1164.98571428571  64.4 1156.5  76 1156.5  C 87.6 1156.5  90.5 1164.98571428571  90.5 1170  C 90.5 1179.62958787244  81.8 1185.40734059591  76 1195.03692846835  Z " fill-rule="nonzero" fill="#009dd9" stroke="none" />
      <path d="M 76 1196  C 70 1186  61 1180  61 1170  C 61 1164.8  64 1156  76 1156  C 88 1156  91 1164.8  91 1170  C 91 1180  82 1186  76 1196  Z M 76 1194.07385693671  C 81.6 1184.81468119182  90 1179.25917574489  90 1170  C 90 1165.17142857143  87.2 1157  76 1157  C 64.8 1157  62 1165.17142857143  62 1170  C 62 1179.25917574489  70.4 1184.81468119182  76 1194.07385693671  Z " fill-rule="nonzero" fill="#ffffff" stroke="none" />
    </g>
  </defs>
  <g transform="matrix(1 0 0 1 -57 -1152 )">
    <use xlink:href="#widget4" filter="url(#filter3)" />
    <use xlink:href="#widget4" />
  </g>
</svg>