<?xml version="1.0" encoding="utf-8"?>
<svg version="1.1" xmlns:xlink="http://www.w3.org/1999/xlink" width="12px" height="12px" viewBox="1630 1507.5  12 12" xmlns="http://www.w3.org/2000/svg">
  <path d="M 1636 1507.5  C 1639.36 1507.5  1642 1510.14  1642 1513.5  C 1642 1516.86  1639.36 1519.5  1636 1519.5  C 1632.64 1519.5  1630 1516.86  1630 1513.5  C 1630 1510.14  1632.64 1507.5  1636 1507.5  Z " fill-rule="nonzero" fill="#ffffff" stroke="none" />
  <path d="M 1636 1508  C 1639.08 1508  1641.5 1510.42  1641.5 1513.5  C 1641.5 1516.58  1639.08 1519  1636 1519  C 1632.92 1519  1630.5 1516.58  1630.5 1513.5  C 1630.5 1510.42  1632.92 1508  1636 1508  Z " stroke-width="1" stroke="#797979" fill="none" />
  <path d="M 1636 1516.5  C 1634.32 1516.5  1633 1515.18  1633 1513.5  C 1633 1511.82  1634.32 1510.5  1636 1510.5  C 1637.68 1510.5  1639 1511.82  1639 1513.5  C 1639 1515.18  1637.68 1516.5  1636 1516.5  " fill-rule="nonzero" fill="#797979" stroke="none" />
</svg>