<?xml version="1.0" encoding="utf-8"?>
<svg version="1.1" xmlns:xlink="http://www.w3.org/1999/xlink" width="48px" height="58px" xmlns="http://www.w3.org/2000/svg">
  <defs>
    <filter x="234px" y="1295px" width="48px" height="58px" filterUnits="userSpaceOnUse" id="filter6">
      <feOffset dx="1" dy="1" in="SourceAlpha" result="shadowOffsetInner" />
      <feGaussianBlur stdDeviation="2.5" in="shadowOffsetInner" result="shadowGaussian" />
      <feComposite in2="shadowGaussian" operator="atop" in="SourceAlpha" result="shadowComposite" />
      <feColorMatrix type="matrix" values="0 0 0 0 0  0 0 0 0 0  0 0 0 0 0  0 0 0 0.698039215686274 0  " in="shadowComposite" />
    </filter>
    <g id="widget7">
      <path d="M 257 1346.07117710035  C 249.6 1334.42841667714  238.5 1327.44276042321  238.5 1315.8  C 238.5 1309.74571428571  242.2 1299.5  257 1299.5  C 271.8 1299.5  275.5 1309.74571428571  275.5 1315.8  C 275.5 1327.44276042321  264.4 1334.42841667714  257 1346.07117710035  Z " fill-rule="nonzero" fill="#009dd9" stroke="none" />
      <path d="M 257 1347  C 249.4 1335  238 1327.8  238 1315.8  C 238 1309.56  241.8 1299  257 1299  C 272.2 1299  276 1309.56  276 1315.8  C 276 1327.8  264.6 1335  257 1347  Z M 257 1345.14235420069  C 264.2 1333.85683335427  275 1327.08552084642  275 1315.8  C 275 1309.93142857143  271.4 1300  257 1300  C 242.6 1300  239 1309.93142857143  239 1315.8  C 239 1327.08552084642  249.8 1333.85683335427  257 1345.14235420069  Z " fill-rule="nonzero" fill="#ffffff" stroke="none" />
    </g>
  </defs>
  <g transform="matrix(1 0 0 1 -234 -1295 )">
    <use xlink:href="#widget7" filter="url(#filter6)" />
    <use xlink:href="#widget7" />
  </g>
</svg>