<?xml version="1.0" encoding="utf-8"?>
<svg version="1.1" xmlns:xlink="http://www.w3.org/1999/xlink" width="12px" height="12px" viewBox="1623 1577.5  12 12" xmlns="http://www.w3.org/2000/svg">
  <path d="M 1629 1577.5  C 1632.36 1577.5  1635 1580.14  1635 1583.5  C 1635 1586.86  1632.36 1589.5  1629 1589.5  C 1625.64 1589.5  1623 1586.86  1623 1583.5  C 1623 1580.14  1625.64 1577.5  1629 1577.5  Z " fill-rule="nonzero" fill="#f0f0f0" stroke="none" />
  <path d="M 1629 1578  C 1632.08 1578  1634.5 1580.42  1634.5 1583.5  C 1634.5 1586.58  1632.08 1589  1629 1589  C 1625.92 1589  1623.5 1586.58  1623.5 1583.5  C 1623.5 1580.42  1625.92 1578  1629 1578  Z " stroke-width="1" stroke="#797979" fill="none" />
  <path d="M 1629 1586.5  C 1627.32 1586.5  1626 1585.18  1626 1583.5  C 1626 1581.82  1627.32 1580.5  1629 1580.5  C 1630.68 1580.5  1632 1581.82  1632 1583.5  C 1632 1585.18  1630.68 1586.5  1629 1586.5  " fill-rule="nonzero" fill="#797979" stroke="none" />
</svg>