<?xml version="1.0" encoding="utf-8"?>
<svg version="1.1" xmlns:xlink="http://www.w3.org/1999/xlink" width="12px" height="12px" viewBox="1711 1507.5  12 12" xmlns="http://www.w3.org/2000/svg">
  <path d="M 1717 1507.5  C 1720.36 1507.5  1723 1510.14  1723 1513.5  C 1723 1516.86  1720.36 1519.5  1717 1519.5  C 1713.64 1519.5  1711 1516.86  1711 1513.5  C 1711 1510.14  1713.64 1507.5  1717 1507.5  Z " fill-rule="nonzero" fill="#f0f0f0" stroke="none" />
  <path d="M 1717 1508  C 1720.08 1508  1722.5 1510.42  1722.5 1513.5  C 1722.5 1516.58  1720.08 1519  1717 1519  C 1713.92 1519  1711.5 1516.58  1711.5 1513.5  C 1711.5 1510.42  1713.92 1508  1717 1508  Z " stroke-width="1" stroke="#797979" fill="none" />
  <path d="M 1717 1516.5  C 1715.32 1516.5  1714 1515.18  1714 1513.5  C 1714 1511.82  1715.32 1510.5  1717 1510.5  C 1718.68 1510.5  1720 1511.82  1720 1513.5  C 1720 1515.18  1718.68 1516.5  1717 1516.5  " fill-rule="nonzero" fill="#797979" stroke="none" />
</svg>