<?xml version="1.0" encoding="utf-8"?>
<svg version="1.1" xmlns:xlink="http://www.w3.org/1999/xlink" width="12px" height="12px" viewBox="251 297.5  12 12" xmlns="http://www.w3.org/2000/svg">
  <path d="M 257 297.5  C 260.36 297.5  263 300.14  263 303.5  C 263 306.86  260.36 309.5  257 309.5  C 253.64 309.5  251 306.86  251 303.5  C 251 300.14  253.64 297.5  257 297.5  Z " fill-rule="nonzero" fill="#f0f0f0" stroke="none" />
  <path d="M 257 298  C 260.08 298  262.5 300.42  262.5 303.5  C 262.5 306.58  260.08 309  257 309  C 253.92 309  251.5 306.58  251.5 303.5  C 251.5 300.42  253.92 298  257 298  Z " stroke-width="1" stroke="#797979" fill="none" />
  <path d="M 257 306.5  C 255.32 306.5  254 305.18  254 303.5  C 254 301.82  255.32 300.5  257 300.5  C 258.68 300.5  260 301.82  260 303.5  C 260 305.18  258.68 306.5  257 306.5  " fill-rule="nonzero" fill="#797979" stroke="none" />
</svg>