<?xml version="1.0" encoding="utf-8"?>
<svg version="1.1" xmlns:xlink="http://www.w3.org/1999/xlink" width="12px" height="12px" viewBox="251 403.5  12 12" xmlns="http://www.w3.org/2000/svg">
  <path d="M 257 403.5  C 260.36 403.5  263 406.14  263 409.5  C 263 412.86  260.36 415.5  257 415.5  C 253.64 415.5  251 412.86  251 409.5  C 251 406.14  253.64 403.5  257 403.5  Z " fill-rule="nonzero" fill="#70b603" stroke="none" />
  <path d="M 257 404  C 260.08 404  262.5 406.42  262.5 409.5  C 262.5 412.58  260.08 415  257 415  C 253.92 415  251.5 412.58  251.5 409.5  C 251.5 406.42  253.92 404  257 404  Z " stroke-width="1" stroke="#797979" fill="none" />
  <path d="M 257 412.5  C 255.32 412.5  254 411.18  254 409.5  C 254 407.82  255.32 406.5  257 406.5  C 258.68 406.5  260 407.82  260 409.5  C 260 411.18  258.68 412.5  257 412.5  " fill-rule="nonzero" fill="#797979" stroke="none" />
</svg>