<?xml version="1.0" encoding="utf-8"?>
<svg version="1.1" xmlns:xlink="http://www.w3.org/1999/xlink" width="12px" height="12px" viewBox="261 650.5  12 12" xmlns="http://www.w3.org/2000/svg">
  <path d="M 267 650.5  C 270.36 650.5  273 653.14  273 656.5  C 273 659.86  270.36 662.5  267 662.5  C 263.64 662.5  261 659.86  261 656.5  C 261 653.14  263.64 650.5  267 650.5  Z " fill-rule="nonzero" fill="#70b603" stroke="none" />
  <path d="M 267 651  C 270.08 651  272.5 653.42  272.5 656.5  C 272.5 659.58  270.08 662  267 662  C 263.92 662  261.5 659.58  261.5 656.5  C 261.5 653.42  263.92 651  267 651  Z " stroke-width="1" stroke="#797979" fill="none" />
  <path d="M 267 659.5  C 265.32 659.5  264 658.18  264 656.5  C 264 654.82  265.32 653.5  267 653.5  C 268.68 653.5  270 654.82  270 656.5  C 270 658.18  268.68 659.5  267 659.5  " fill-rule="nonzero" fill="#797979" stroke="none" />
</svg>