<?xml version="1.0" encoding="utf-8"?>
<svg version="1.1" xmlns:xlink="http://www.w3.org/1999/xlink" width="12px" height="12px" viewBox="301 726.5  12 12" xmlns="http://www.w3.org/2000/svg">
  <path d="M 307 726.5  C 310.36 726.5  313 729.14  313 732.5  C 313 735.86  310.36 738.5  307 738.5  C 303.64 738.5  301 735.86  301 732.5  C 301 729.14  303.64 726.5  307 726.5  Z " fill-rule="nonzero" fill="#f0f0f0" stroke="none" />
  <path d="M 307 727  C 310.08 727  312.5 729.42  312.5 732.5  C 312.5 735.58  310.08 738  307 738  C 303.92 738  301.5 735.58  301.5 732.5  C 301.5 729.42  303.92 727  307 727  Z " stroke-width="1" stroke="#797979" fill="none" />
  <path d="M 307 735.5  C 305.32 735.5  304 734.18  304 732.5  C 304 730.82  305.32 729.5  307 729.5  C 308.68 729.5  310 730.82  310 732.5  C 310 734.18  308.68 735.5  307 735.5  " fill-rule="nonzero" fill="#797979" stroke="none" />
</svg>