<?xml version="1.0" encoding="utf-8"?>
<svg version="1.1" xmlns:xlink="http://www.w3.org/1999/xlink" width="12px" height="12px" viewBox="401 726.5  12 12" xmlns="http://www.w3.org/2000/svg">
  <path d="M 407 726.5  C 410.36 726.5  413 729.14  413 732.5  C 413 735.86  410.36 738.5  407 738.5  C 403.64 738.5  401 735.86  401 732.5  C 401 729.14  403.64 726.5  407 726.5  Z " fill-rule="nonzero" fill="#70b603" stroke="none" />
  <path d="M 407 727  C 410.08 727  412.5 729.42  412.5 732.5  C 412.5 735.58  410.08 738  407 738  C 403.92 738  401.5 735.58  401.5 732.5  C 401.5 729.42  403.92 727  407 727  Z " stroke-width="1" stroke="#797979" fill="none" />
  <path d="M 407 735.5  C 405.32 735.5  404 734.18  404 732.5  C 404 730.82  405.32 729.5  407 729.5  C 408.68 729.5  410 730.82  410 732.5  C 410 734.18  408.68 735.5  407 735.5  " fill-rule="nonzero" fill="#797979" stroke="none" />
</svg>