<?xml version="1.0" encoding="utf-8"?>
<svg version="1.1" xmlns:xlink="http://www.w3.org/1999/xlink" width="12px" height="12px" viewBox="351 377.5  12 12" xmlns="http://www.w3.org/2000/svg">
  <path d="M 357 377.5  C 360.36 377.5  363 380.14  363 383.5  C 363 386.86  360.36 389.5  357 389.5  C 353.64 389.5  351 386.86  351 383.5  C 351 380.14  353.64 377.5  357 377.5  Z " fill-rule="nonzero" fill="#70b603" stroke="none" />
  <path d="M 357 378  C 360.08 378  362.5 380.42  362.5 383.5  C 362.5 386.58  360.08 389  357 389  C 353.92 389  351.5 386.58  351.5 383.5  C 351.5 380.42  353.92 378  357 378  Z " stroke-width="1" stroke="#797979" fill="none" />
  <path d="M 357 386.5  C 355.32 386.5  354 385.18  354 383.5  C 354 381.82  355.32 380.5  357 380.5  C 358.68 380.5  360 381.82  360 383.5  C 360 385.18  358.68 386.5  357 386.5  " fill-rule="nonzero" fill="#797979" stroke="none" />
</svg>