<?xml version="1.0" encoding="utf-8"?>
<svg version="1.1" xmlns:xlink="http://www.w3.org/1999/xlink" width="12px" height="12px" viewBox="351 410.5  12 12" xmlns="http://www.w3.org/2000/svg">
  <path d="M 357 410.5  C 360.36 410.5  363 413.14  363 416.5  C 363 419.86  360.36 422.5  357 422.5  C 353.64 422.5  351 419.86  351 416.5  C 351 413.14  353.64 410.5  357 410.5  Z " fill-rule="nonzero" fill="#70b603" stroke="none" />
  <path d="M 357 411  C 360.08 411  362.5 413.42  362.5 416.5  C 362.5 419.58  360.08 422  357 422  C 353.92 422  351.5 419.58  351.5 416.5  C 351.5 413.42  353.92 411  357 411  Z " stroke-width="1" stroke="#797979" fill="none" />
  <path d="M 357 419.5  C 355.32 419.5  354 418.18  354 416.5  C 354 414.82  355.32 413.5  357 413.5  C 358.68 413.5  360 414.82  360 416.5  C 360 418.18  358.68 419.5  357 419.5  " fill-rule="nonzero" fill="#797979" stroke="none" />
</svg>