<?xml version="1.0" encoding="utf-8"?>
<svg version="1.1" xmlns:xlink="http://www.w3.org/1999/xlink" width="12px" height="12px" viewBox="251 556.5  12 12" xmlns="http://www.w3.org/2000/svg">
  <path d="M 257 556.5  C 260.36 556.5  263 559.14  263 562.5  C 263 565.86  260.36 568.5  257 568.5  C 253.64 568.5  251 565.86  251 562.5  C 251 559.14  253.64 556.5  257 556.5  Z " fill-rule="nonzero" fill="#70b603" stroke="none" />
  <path d="M 257 557  C 260.08 557  262.5 559.42  262.5 562.5  C 262.5 565.58  260.08 568  257 568  C 253.92 568  251.5 565.58  251.5 562.5  C 251.5 559.42  253.92 557  257 557  Z " stroke-width="1" stroke="#797979" fill="none" />
  <path d="M 257 565.5  C 255.32 565.5  254 564.18  254 562.5  C 254 560.82  255.32 559.5  257 559.5  C 258.68 559.5  260 560.82  260 562.5  C 260 564.18  258.68 565.5  257 565.5  " fill-rule="nonzero" fill="#797979" stroke="none" />
</svg>