<?xml version="1.0" encoding="utf-8"?>
<svg version="1.1" xmlns:xlink="http://www.w3.org/1999/xlink" width="12px" height="12px" viewBox="261 1145.5  12 12" xmlns="http://www.w3.org/2000/svg">
  <path d="M 267 1145.5  C 270.36 1145.5  273 1148.14  273 1151.5  C 273 1154.86  270.36 1157.5  267 1157.5  C 263.64 1157.5  261 1154.86  261 1151.5  C 261 1148.14  263.64 1145.5  267 1145.5  Z " fill-rule="nonzero" fill="#f0f0f0" stroke="none" />
  <path d="M 267 1146  C 270.08 1146  272.5 1148.42  272.5 1151.5  C 272.5 1154.58  270.08 1157  267 1157  C 263.92 1157  261.5 1154.58  261.5 1151.5  C 261.5 1148.42  263.92 1146  267 1146  Z " stroke-width="1" stroke="#797979" fill="none" />
  <path d="M 267 1154.5  C 265.32 1154.5  264 1153.18  264 1151.5  C 264 1149.82  265.32 1148.5  267 1148.5  C 268.68 1148.5  270 1149.82  270 1151.5  C 270 1153.18  268.68 1154.5  267 1154.5  " fill-rule="nonzero" fill="#797979" stroke="none" />
</svg>