<?xml version="1.0" encoding="utf-8"?>
<svg version="1.1" xmlns:xlink="http://www.w3.org/1999/xlink" width="12px" height="12px" viewBox="334 1144.5  12 12" xmlns="http://www.w3.org/2000/svg">
  <path d="M 340 1144.5  C 343.36 1144.5  346 1147.14  346 1150.5  C 346 1153.86  343.36 1156.5  340 1156.5  C 336.64 1156.5  334 1153.86  334 1150.5  C 334 1147.14  336.64 1144.5  340 1144.5  Z " fill-rule="nonzero" fill="#f0f0f0" stroke="none" />
  <path d="M 340 1145  C 343.08 1145  345.5 1147.42  345.5 1150.5  C 345.5 1153.58  343.08 1156  340 1156  C 336.92 1156  334.5 1153.58  334.5 1150.5  C 334.5 1147.42  336.92 1145  340 1145  Z " stroke-width="1" stroke="#797979" fill="none" />
  <path d="M 340 1153.5  C 338.32 1153.5  337 1152.18  337 1150.5  C 337 1148.82  338.32 1147.5  340 1147.5  C 341.68 1147.5  343 1148.82  343 1150.5  C 343 1152.18  341.68 1153.5  340 1153.5  " fill-rule="nonzero" fill="#797979" stroke="none" />
</svg>