<?xml version="1.0" encoding="utf-8"?>
<svg version="1.1" xmlns:xlink="http://www.w3.org/1999/xlink" width="12px" height="12px" viewBox="498 1144.5  12 12" xmlns="http://www.w3.org/2000/svg">
  <path d="M 504 1144.5  C 507.36 1144.5  510 1147.14  510 1150.5  C 510 1153.86  507.36 1156.5  504 1156.5  C 500.64 1156.5  498 1153.86  498 1150.5  C 498 1147.14  500.64 1144.5  504 1144.5  Z " fill-rule="nonzero" fill="#70b603" stroke="none" />
  <path d="M 504 1145  C 507.08 1145  509.5 1147.42  509.5 1150.5  C 509.5 1153.58  507.08 1156  504 1156  C 500.92 1156  498.5 1153.58  498.5 1150.5  C 498.5 1147.42  500.92 1145  504 1145  Z " stroke-width="1" stroke="#797979" fill="none" />
  <path d="M 504 1153.5  C 502.32 1153.5  501 1152.18  501 1150.5  C 501 1148.82  502.32 1147.5  504 1147.5  C 505.68 1147.5  507 1148.82  507 1150.5  C 507 1152.18  505.68 1153.5  504 1153.5  " fill-rule="nonzero" fill="#797979" stroke="none" />
</svg>