<?xml version="1.0" encoding="utf-8"?>
<svg version="1.1" xmlns:xlink="http://www.w3.org/1999/xlink" width="12px" height="12px" viewBox="251 448.5  12 12" xmlns="http://www.w3.org/2000/svg">
  <path d="M 257 448.5  C 260.36 448.5  263 451.14  263 454.5  C 263 457.86  260.36 460.5  257 460.5  C 253.64 460.5  251 457.86  251 454.5  C 251 451.14  253.64 448.5  257 448.5  Z " fill-rule="nonzero" fill="#f0f0f0" stroke="none" />
  <path d="M 257 449  C 260.08 449  262.5 451.42  262.5 454.5  C 262.5 457.58  260.08 460  257 460  C 253.92 460  251.5 457.58  251.5 454.5  C 251.5 451.42  253.92 449  257 449  Z " stroke-width="1" stroke="#797979" fill="none" />
  <path d="M 257 457.5  C 255.32 457.5  254 456.18  254 454.5  C 254 452.82  255.32 451.5  257 451.5  C 258.68 451.5  260 452.82  260 454.5  C 260 456.18  258.68 457.5  257 457.5  " fill-rule="nonzero" fill="#797979" stroke="none" />
</svg>