<?xml version="1.0" encoding="utf-8"?>
<svg version="1.1" xmlns:xlink="http://www.w3.org/1999/xlink" width="12px" height="12px" viewBox="351 1220.5  12 12" xmlns="http://www.w3.org/2000/svg">
  <path d="M 357 1220.5  C 360.36 1220.5  363 1223.14  363 1226.5  C 363 1229.86  360.36 1232.5  357 1232.5  C 353.64 1232.5  351 1229.86  351 1226.5  C 351 1223.14  353.64 1220.5  357 1220.5  Z " fill-rule="nonzero" fill="#70b603" stroke="none" />
  <path d="M 357 1221  C 360.08 1221  362.5 1223.42  362.5 1226.5  C 362.5 1229.58  360.08 1232  357 1232  C 353.92 1232  351.5 1229.58  351.5 1226.5  C 351.5 1223.42  353.92 1221  357 1221  Z " stroke-width="1" stroke="#797979" fill="none" />
  <path d="M 357 1229.5  C 355.32 1229.5  354 1228.18  354 1226.5  C 354 1224.82  355.32 1223.5  357 1223.5  C 358.68 1223.5  360 1224.82  360 1226.5  C 360 1228.18  358.68 1229.5  357 1229.5  " fill-rule="nonzero" fill="#797979" stroke="none" />
</svg>