<?xml version="1.0" encoding="utf-8"?>
<svg version="1.1" xmlns:xlink="http://www.w3.org/1999/xlink" width="40px" height="50px" xmlns="http://www.w3.org/2000/svg">
  <defs>
    <filter x="2209px" y="752px" width="40px" height="50px" filterUnits="userSpaceOnUse" id="filter1">
      <feOffset dx="1" dy="1" in="SourceAlpha" result="shadowOffsetInner" />
      <feGaussianBlur stdDeviation="2.5" in="shadowOffsetInner" result="shadowGaussian" />
      <feComposite in2="shadowGaussian" operator="atop" in="SourceAlpha" result="shadowComposite" />
      <feColorMatrix type="matrix" values="0 0 0 0 0  0 0 0 0 0  0 0 0 0 0  0 0 0 0.698039215686274 0  " in="shadowComposite" />
    </filter>
    <g id="widget2">
      <path d="M 2228 795.036928468354  C 2222.2 785.40734059591  2213.5 779.629587872444  2213.5 770  C 2213.5 764.985714285714  2216.4 756.5  2228 756.5  C 2239.6 756.5  2242.5 764.985714285714  2242.5 770  C 2242.5 779.629587872444  2233.8 785.40734059591  2228 795.036928468354  Z " fill-rule="nonzero" fill="#009dd9" stroke="none" />
      <path d="M 2228 796  C 2222 786  2213 780  2213 770  C 2213 764.8  2216 756  2228 756  C 2240 756  2243 764.8  2243 770  C 2243 780  2234 786  2228 796  Z M 2228 794.073856936707  C 2233.6 784.81468119182  2242 779.259175744887  2242 770  C 2242 765.171428571429  2239.2 757  2228 757  C 2216.8 757  2214 765.171428571429  2214 770  C 2214 779.259175744887  2222.4 784.81468119182  2228 794.073856936707  Z " fill-rule="nonzero" fill="#ffffff" stroke="none" />
    </g>
  </defs>
  <g transform="matrix(1 0 0 1 -2209 -752 )">
    <use xlink:href="#widget2" filter="url(#filter1)" />
    <use xlink:href="#widget2" />
  </g>
</svg>