<?xml version="1.0" encoding="utf-8"?>
<svg version="1.1" xmlns:xlink="http://www.w3.org/1999/xlink" width="9px" height="15px" xmlns="http://www.w3.org/2000/svg">
  <g transform="matrix(1 0 0 1 -595 -234 )">
    <path d="M 0.692307692307692 11.5178571428571  L 0.692307692307692 13.9285714285714  L 2.25 13.9285714285714  L 2.25 11.5178571428571  L 0.692307692307692 11.5178571428571  Z M 2.59615384615385 11.5178571428571  L 2.59615384615385 13.9285714285714  L 4.32692307692308 13.9285714285714  L 4.32692307692308 11.5178571428571  L 2.59615384615385 11.5178571428571  Z M 0.692307692307692 8.30357142857143  L 0.692307692307692 10.9821428571429  L 2.25 10.9821428571429  L 2.25 8.30357142857143  L 0.692307692307692 8.30357142857143  Z M 2.59615384615385 8.30357142857143  L 2.59615384615385 10.9821428571429  L 4.32692307692308 10.9821428571429  L 4.32692307692308 8.30357142857143  L 2.59615384615385 8.30357142857143  Z M 0.692307692307692 5.35714285714286  L 0.692307692307692 7.76785714285714  L 2.25 7.76785714285714  L 2.25 5.35714285714286  L 0.692307692307692 5.35714285714286  Z M 4.67307692307692 11.5178571428571  L 4.67307692307692 13.9285714285714  L 6.40384615384615 13.9285714285714  L 6.40384615384615 11.5178571428571  L 4.67307692307692 11.5178571428571  Z M 2.59615384615385 5.35714285714286  L 2.59615384615385 7.76785714285714  L 4.32692307692308 7.76785714285714  L 4.32692307692308 5.35714285714286  L 2.59615384615385 5.35714285714286  Z M 6.75 11.5178571428571  L 6.75 13.9285714285714  L 8.30769230769231 13.9285714285714  L 8.30769230769231 11.5178571428571  L 6.75 11.5178571428571  Z M 4.67307692307692 8.30357142857143  L 4.67307692307692 10.9821428571429  L 6.40384615384615 10.9821428571429  L 6.40384615384615 8.30357142857143  L 4.67307692307692 8.30357142857143  Z M 2.71784855769231 3.93833705357143  C 2.75210336538462 3.88532366071428  2.76923076923077 3.82254464285714  2.76923076923077 3.75  L 2.76923076923077 1.33928571428571  C 2.76923076923077 1.26674107142857  2.75210336538462 1.20396205357143  2.71784855769231 1.15094866071429  C 2.68359375 1.09793526785714  2.64302884615385 1.07142857142857  2.59615384615385 1.07142857142857  L 2.25 1.07142857142857  C 2.203125 1.07142857142857  2.16256009615385 1.09793526785714  2.12830528846154 1.15094866071429  C 2.09405048076923 1.20396205357143  2.07692307692308 1.26674107142857  2.07692307692308 1.33928571428571  L 2.07692307692308 3.75  C 2.07692307692308 3.82254464285714  2.09405048076923 3.88532366071428  2.12830528846154 3.93833705357143  C 2.16256009615385 3.99135044642857  2.203125 4.01785714285714  2.25 4.01785714285714  L 2.59615384615385 4.01785714285714  C 2.64302884615385 4.01785714285714  2.68359375 3.99135044642857  2.71784855769231 3.93833705357143  Z M 6.75 8.30357142857143  L 6.75 10.9821428571429  L 8.30769230769231 10.9821428571429  L 8.30769230769231 8.30357142857143  L 6.75 8.30357142857143  Z M 4.67307692307692 5.35714285714286  L 4.67307692307692 7.76785714285714  L 6.40384615384615 7.76785714285714  L 6.40384615384615 5.35714285714286  L 4.67307692307692 5.35714285714286  Z M 6.75 5.35714285714286  L 6.75 7.76785714285714  L 8.30769230769231 7.76785714285714  L 8.30769230769231 5.35714285714286  L 6.75 5.35714285714286  Z M 6.87169471153846 3.93833705357143  C 6.90594951923077 3.88532366071428  6.92307692307692 3.82254464285714  6.92307692307692 3.75  L 6.92307692307692 1.33928571428571  C 6.92307692307692 1.26674107142857  6.90594951923077 1.20396205357143  6.87169471153846 1.15094866071429  C 6.83743990384615 1.09793526785714  6.796875 1.07142857142857  6.75 1.07142857142857  L 6.40384615384615 1.07142857142857  C 6.35697115384616 1.07142857142857  6.31640625 1.09793526785714  6.28215144230769 1.15094866071429  C 6.24789663461539 1.20396205357143  6.23076923076923 1.26674107142857  6.23076923076923 1.33928571428571  L 6.23076923076923 3.75  C 6.23076923076923 3.82254464285714  6.24789663461539 3.88532366071428  6.28215144230769 3.93833705357143  C 6.31640625 3.99135044642857  6.35697115384616 4.01785714285714  6.40384615384615 4.01785714285714  L 6.75 4.01785714285714  C 6.796875 4.01785714285714  6.83743990384615 3.99135044642857  6.87169471153846 3.93833705357143  Z M 8.79447115384615 2.4609375  C 8.93149038461539 2.67299107142857  9 2.92410714285714  9 3.21428571428571  L 9 13.9285714285714  C 9 14.21875  8.93149038461539 14.4698660714286  8.79447115384615 14.6819196428571  C 8.65745192307692 14.8939732142857  8.49519230769231 15  8.30769230769231 15  L 0.692307692307692 15  C 0.504807692307692 15  0.342548076923077 14.8939732142857  0.205528846153846 14.6819196428571  C 0.0685096153846154 14.4698660714286  0 14.21875  0 13.9285714285714  L 0 3.21428571428571  C 0 2.92410714285714  0.0685096153846154 2.67299107142857  0.205528846153846 2.4609375  C 0.342548076923077 2.24888392857143  0.504807692307692 2.14285714285714  0.692307692307692 2.14285714285714  L 1.38461538461538 2.14285714285714  L 1.38461538461538 1.33928571428571  C 1.38461538461538 0.970982142857144  1.46935096153846 0.655691964285713  1.63882211538462 0.393415178571429  C 1.80829326923077 0.131138392857143  2.01201923076923 0  2.25 0  L 2.59615384615385 0  C 2.83413461538462 0  3.03786057692308 0.131138392857143  3.20733173076923 0.393415178571429  C 3.37680288461539 0.655691964285713  3.46153846153846 0.970982142857144  3.46153846153846 1.33928571428571  L 3.46153846153846 2.14285714285714  L 5.53846153846154 2.14285714285714  L 5.53846153846154 1.33928571428571  C 5.53846153846154 0.970982142857144  5.62319711538462 0.655691964285713  5.79266826923077 0.393415178571429  C 5.96213942307692 0.131138392857143  6.16586538461539 0  6.40384615384615 0  L 6.75 0  C 6.98798076923077 0  7.19170673076923 0.131138392857143  7.36117788461539 0.393415178571429  C 7.53064903846154 0.655691964285713  7.61538461538462 0.970982142857144  7.61538461538462 1.33928571428571  L 7.61538461538462 2.14285714285714  L 8.30769230769231 2.14285714285714  C 8.49519230769231 2.14285714285714  8.65745192307692 2.24888392857143  8.79447115384615 2.4609375  Z " fill-rule="nonzero" fill="#8c8c8c" stroke="none" transform="matrix(1 0 0 1 595 234 )" />
  </g>
</svg>