<?xml version="1.0" encoding="utf-8"?>
<svg version="1.1" xmlns:xlink="http://www.w3.org/1999/xlink" width="12px" height="12px" viewBox="351 330.5  12 12" xmlns="http://www.w3.org/2000/svg">
  <path d="M 357 330.5  C 360.36 330.5  363 333.14  363 336.5  C 363 339.86  360.36 342.5  357 342.5  C 353.64 342.5  351 339.86  351 336.5  C 351 333.14  353.64 330.5  357 330.5  Z " fill-rule="nonzero" fill="#70b603" stroke="none" />
  <path d="M 357 331  C 360.08 331  362.5 333.42  362.5 336.5  C 362.5 339.58  360.08 342  357 342  C 353.92 342  351.5 339.58  351.5 336.5  C 351.5 333.42  353.92 331  357 331  Z " stroke-width="1" stroke="#797979" fill="none" />
  <path d="M 357 339.5  C 355.32 339.5  354 338.18  354 336.5  C 354 334.82  355.32 333.5  357 333.5  C 358.68 333.5  360 334.82  360 336.5  C 360 338.18  358.68 339.5  357 339.5  " fill-rule="nonzero" fill="#797979" stroke="none" />
</svg>