<?xml version="1.0" encoding="utf-8"?>
<svg version="1.1" xmlns:xlink="http://www.w3.org/1999/xlink" width="12px" height="12px" viewBox="351 470.5  12 12" xmlns="http://www.w3.org/2000/svg">
  <path d="M 357 470.5  C 360.36 470.5  363 473.14  363 476.5  C 363 479.86  360.36 482.5  357 482.5  C 353.64 482.5  351 479.86  351 476.5  C 351 473.14  353.64 470.5  357 470.5  Z " fill-rule="nonzero" fill="#f0f0f0" stroke="none" />
  <path d="M 357 471  C 360.08 471  362.5 473.42  362.5 476.5  C 362.5 479.58  360.08 482  357 482  C 353.92 482  351.5 479.58  351.5 476.5  C 351.5 473.42  353.92 471  357 471  Z " stroke-width="1" stroke="#797979" fill="none" />
  <path d="M 357 479.5  C 355.32 479.5  354 478.18  354 476.5  C 354 474.82  355.32 473.5  357 473.5  C 358.68 473.5  360 474.82  360 476.5  C 360 478.18  358.68 479.5  357 479.5  " fill-rule="nonzero" fill="#797979" stroke="none" />
</svg>