<?xml version="1.0" encoding="utf-8"?>
<svg version="1.1" xmlns:xlink="http://www.w3.org/1999/xlink" width="12px" height="12px" viewBox="334 649.5  12 12" xmlns="http://www.w3.org/2000/svg">
  <path d="M 340 649.5  C 343.36 649.5  346 652.14  346 655.5  C 346 658.86  343.36 661.5  340 661.5  C 336.64 661.5  334 658.86  334 655.5  C 334 652.14  336.64 649.5  340 649.5  Z " fill-rule="nonzero" fill="#70b603" stroke="none" />
  <path d="M 340 650  C 343.08 650  345.5 652.42  345.5 655.5  C 345.5 658.58  343.08 661  340 661  C 336.92 661  334.5 658.58  334.5 655.5  C 334.5 652.42  336.92 650  340 650  Z " stroke-width="1" stroke="#797979" fill="none" />
  <path d="M 340 658.5  C 338.32 658.5  337 657.18  337 655.5  C 337 653.82  338.32 652.5  340 652.5  C 341.68 652.5  343 653.82  343 655.5  C 343 657.18  341.68 658.5  340 658.5  " fill-rule="nonzero" fill="#797979" stroke="none" />
</svg>