<?xml version="1.0" encoding="utf-8"?>
<svg version="1.1" xmlns:xlink="http://www.w3.org/1999/xlink" width="12px" height="12px" viewBox="498 649.5  12 12" xmlns="http://www.w3.org/2000/svg">
  <path d="M 504 649.5  C 507.36 649.5  510 652.14  510 655.5  C 510 658.86  507.36 661.5  504 661.5  C 500.64 661.5  498 658.86  498 655.5  C 498 652.14  500.64 649.5  504 649.5  Z " fill-rule="nonzero" fill="#70b603" stroke="none" />
  <path d="M 504 650  C 507.08 650  509.5 652.42  509.5 655.5  C 509.5 658.58  507.08 661  504 661  C 500.92 661  498.5 658.58  498.5 655.5  C 498.5 652.42  500.92 650  504 650  Z " stroke-width="1" stroke="#797979" fill="none" />
  <path d="M 504 658.5  C 502.32 658.5  501 657.18  501 655.5  C 501 653.82  502.32 652.5  504 652.5  C 505.68 652.5  507 653.82  507 655.5  C 507 657.18  505.68 658.5  504 658.5  " fill-rule="nonzero" fill="#797979" stroke="none" />
</svg>