<?xml version="1.0" encoding="utf-8"?>
<svg version="1.1" xmlns:xlink="http://www.w3.org/1999/xlink" width="12px" height="12px" viewBox="571 648.5  12 12" xmlns="http://www.w3.org/2000/svg">
  <path d="M 577 648.5  C 580.36 648.5  583 651.14  583 654.5  C 583 657.86  580.36 660.5  577 660.5  C 573.64 660.5  571 657.86  571 654.5  C 571 651.14  573.64 648.5  577 648.5  Z " fill-rule="nonzero" fill="#f0f0f0" stroke="none" />
  <path d="M 577 649  C 580.08 649  582.5 651.42  582.5 654.5  C 582.5 657.58  580.08 660  577 660  C 573.92 660  571.5 657.58  571.5 654.5  C 571.5 651.42  573.92 649  577 649  Z " stroke-width="1" stroke="#797979" fill="none" />
  <path d="M 577 657.5  C 575.32 657.5  574 656.18  574 654.5  C 574 652.82  575.32 651.5  577 651.5  C 578.68 651.5  580 652.82  580 654.5  C 580 656.18  578.68 657.5  577 657.5  " fill-rule="nonzero" fill="#797979" stroke="none" />
</svg>