<?xml version="1.0" encoding="utf-8"?>
<svg version="1.1" xmlns:xlink="http://www.w3.org/1999/xlink" width="12px" height="12px" viewBox="251 726.5  12 12" xmlns="http://www.w3.org/2000/svg">
  <path d="M 257 726.5  C 260.36 726.5  263 729.14  263 732.5  C 263 735.86  260.36 738.5  257 738.5  C 253.64 738.5  251 735.86  251 732.5  C 251 729.14  253.64 726.5  257 726.5  Z " fill-rule="nonzero" fill="#70b603" stroke="none" />
  <path d="M 257 727  C 260.08 727  262.5 729.42  262.5 732.5  C 262.5 735.58  260.08 738  257 738  C 253.92 738  251.5 735.58  251.5 732.5  C 251.5 729.42  253.92 727  257 727  Z " stroke-width="1" stroke="#797979" fill="none" />
  <path d="M 257 735.5  C 255.32 735.5  254 734.18  254 732.5  C 254 730.82  255.32 729.5  257 729.5  C 258.68 729.5  260 730.82  260 732.5  C 260 734.18  258.68 735.5  257 735.5  " fill-rule="nonzero" fill="#797979" stroke="none" />
</svg>