<?xml version="1.0" encoding="utf-8"?>
<svg version="1.1" xmlns:xlink="http://www.w3.org/1999/xlink" width="12px" height="12px" viewBox="351 368.5  12 12" xmlns="http://www.w3.org/2000/svg">
  <path d="M 357 368.5  C 360.36 368.5  363 371.14  363 374.5  C 363 377.86  360.36 380.5  357 380.5  C 353.64 380.5  351 377.86  351 374.5  C 351 371.14  353.64 368.5  357 368.5  Z " fill-rule="nonzero" fill="#f0f0f0" stroke="none" />
  <path d="M 357 369  C 360.08 369  362.5 371.42  362.5 374.5  C 362.5 377.58  360.08 380  357 380  C 353.92 380  351.5 377.58  351.5 374.5  C 351.5 371.42  353.92 369  357 369  Z " stroke-width="1" stroke="#797979" fill="none" />
  <path d="M 357 377.5  C 355.32 377.5  354 376.18  354 374.5  C 354 372.82  355.32 371.5  357 371.5  C 358.68 371.5  360 372.82  360 374.5  C 360 376.18  358.68 377.5  357 377.5  " fill-rule="nonzero" fill="#797979" stroke="none" />
</svg>