<?xml version="1.0" encoding="utf-8"?>
<svg version="1.1" xmlns:xlink="http://www.w3.org/1999/xlink" width="40px" height="50px" xmlns="http://www.w3.org/2000/svg">
  <defs>
    <filter x="122px" y="414px" width="40px" height="50px" filterUnits="userSpaceOnUse" id="filter6">
      <feOffset dx="1" dy="1" in="SourceAlpha" result="shadowOffsetInner" />
      <feGaussianBlur stdDeviation="2.5" in="shadowOffsetInner" result="shadowGaussian" />
      <feComposite in2="shadowGaussian" operator="atop" in="SourceAlpha" result="shadowComposite" />
      <feColorMatrix type="matrix" values="0 0 0 0 0  0 0 0 0 0  0 0 0 0 0  0 0 0 0.698039215686274 0  " in="shadowComposite" />
    </filter>
    <g id="widget7">
      <path d="M 141 457.036928468354  C 135.2 447.40734059591  126.5 441.629587872444  126.5 432  C 126.5 426.985714285714  129.4 418.5  141 418.5  C 152.6 418.5  155.5 426.985714285714  155.5 432  C 155.5 441.629587872444  146.8 447.40734059591  141 457.036928468354  Z " fill-rule="nonzero" fill="#009dd9" stroke="none" />
      <path d="M 141 458  C 135 448  126 442  126 432  C 126 426.8  129 418  141 418  C 153 418  156 426.8  156 432  C 156 442  147 448  141 458  Z M 141 456.073856936707  C 146.6 446.81468119182  155 441.259175744887  155 432  C 155 427.171428571429  152.2 419  141 419  C 129.8 419  127 427.171428571429  127 432  C 127 441.259175744887  135.4 446.81468119182  141 456.073856936707  Z " fill-rule="nonzero" fill="#ffffff" stroke="none" />
    </g>
  </defs>
  <g transform="matrix(1 0 0 1 -122 -414 )">
    <use xlink:href="#widget7" filter="url(#filter6)" />
    <use xlink:href="#widget7" />
  </g>
</svg>